<svg version="1.1" id="Layer_1" xmlns="http://www.w3.org/2000/svg" xmlns:xlink="http://www.w3.org/1999/xlink" x="0px" y="0px"
	 width="100%" viewBox="0 0 2048 2048" enable-background="new 0 0 2048 2048" xml:space="preserve">
<path fill="#FFFFFF" opacity="1.000000" stroke="none" 
	d="
M2049.000000,777.000000 
	C2049.000000,1199.833374 2048.994385,1622.166626 2049.093018,2044.500000 
	C2049.093994,2048.249268 2048.249023,2049.093262 2044.500000,2049.092773 
	C1364.833374,2048.996338 685.166687,2048.996338 5.500014,2049.092773 
	C1.751005,2049.093262 0.906756,2048.249023 0.907286,2044.500000 
	C1.003642,1363.333374 1.000000,682.166687 1.000000,1.000000 
	C682.166687,1.000000 1363.333374,1.003609 2044.500000,0.907290 
	C2048.249023,0.906760 2049.094971,1.750833 2049.093506,5.500036 
	C2048.990723,262.500000 2049.000000,519.500000 2049.000000,777.000000 
z"/>
<path fill="#FEC844" opacity="1.000000" stroke="none" 
	d="
M1527.562744,1162.511475 
	C1539.208862,1160.436523 1549.933350,1156.184326 1561.206421,1153.948853 
	C1589.154297,1148.406738 1617.181519,1146.699585 1645.581055,1149.744141 
	C1679.756714,1153.407715 1712.117798,1162.911865 1742.498657,1178.861572 
	C1774.543945,1195.685059 1802.255981,1217.968140 1825.537231,1245.798340 
	C1849.712402,1274.697510 1867.065674,1307.202881 1877.864868,1343.212891 
	C1884.489014,1365.301392 1888.707520,1387.966309 1888.779907,1410.998291 
	C1889.088135,1508.983887 1889.527710,1606.977783 1888.552246,1704.955078 
	C1888.114624,1748.901611 1875.220947,1790.104126 1853.447754,1828.486816 
	C1841.027100,1850.382324 1825.999634,1870.276489 1808.116821,1887.781494 
	C1780.576416,1914.740234 1748.851929,1935.474365 1712.526123,1948.994141 
	C1677.718018,1961.949219 1641.825195,1967.541504 1604.789917,1965.941895 
	C1571.190674,1964.490601 1538.979126,1956.957520 1508.159302,1943.453125 
	C1472.402954,1927.785522 1441.436401,1905.417603 1415.297363,1876.505371 
	C1391.128296,1849.772095 1372.978638,1819.343018 1360.897827,1785.332642 
	C1352.209229,1760.872192 1347.184937,1735.727661 1345.721313,1709.785645 
	C1345.270508,1701.792969 1345.056152,1693.822144 1345.053589,1685.837891 
	C1345.024902,1596.682861 1344.901855,1507.527466 1345.115845,1418.372925 
	C1345.190674,1387.173706 1350.909424,1356.835449 1361.396973,1327.427979 
	C1361.790283,1326.325195 1362.391235,1325.304443 1361.947754,1323.693604 
	C1377.778687,1282.854492 1401.447266,1247.620483 1433.577393,1218.366333 
	C1460.295166,1194.040039 1490.709595,1175.524658 1524.845947,1163.343384 
	C1525.630981,1163.063354 1526.478882,1163.024292 1527.562744,1162.511475 
z"/>
<path fill="#FEC844" opacity="1.000000" stroke="none" 
	d="
M1110.208008,1293.367920 
	C1108.620605,1296.042969 1109.028809,1298.598267 1109.028442,1301.065308 
	C1109.006470,1437.198975 1109.012329,1573.332520 1108.995605,1709.466187 
	C1108.994507,1717.668579 1110.048706,1717.039429 1101.572510,1717.044922 
	C1059.082764,1717.071899 1016.592529,1716.964844 974.104065,1717.198486 
	C968.897522,1717.227173 967.799438,1715.704834 967.802612,1710.756592 
	C967.921265,1523.635254 967.966919,1336.513794 967.838745,1149.392334 
	C967.809875,1107.183838 949.246521,1075.138184 912.549377,1054.291748 
	C893.997375,1043.752930 873.627258,1040.188599 852.305054,1042.693970 
	C815.029663,1047.073853 788.045593,1066.457886 770.451965,1099.194458 
	C764.424744,1110.409546 760.955444,1122.570679 759.578125,1135.636719 
	C756.335327,1131.962158 757.342590,1127.090576 756.892883,1122.675659 
	C752.730957,1081.811646 739.422607,1044.339966 716.423035,1010.260193 
	C708.858215,999.051086 700.165283,988.799377 691.313782,978.644714 
	C687.380127,974.131775 687.663879,973.531677 691.900146,969.394592 
	C706.019653,955.605835 721.681824,943.884705 738.561951,933.730957 
	C740.134155,932.785339 741.470032,931.513306 743.258484,930.164307 
	C765.450989,918.638794 788.063782,909.450623 812.308350,904.625183 
	C826.213623,901.857605 840.175232,900.028076 854.380493,899.429810 
	C886.273865,898.086548 917.018127,903.436707 947.006470,913.945435 
	C953.065918,916.068787 953.530457,915.742554 953.532410,909.325989 
	C953.548035,858.343933 953.540588,807.361816 953.540649,756.379761 
	C953.540894,645.252197 953.547913,534.124634 953.537476,422.997040 
	C953.532654,371.388824 909.934692,325.160767 858.370667,321.346863 
	C823.935120,318.799835 795.242798,330.366791 771.695374,355.027924 
	C758.394714,368.957611 750.247009,385.815155 746.267395,404.670746 
	C745.788269,406.941284 745.672607,409.309540 744.308533,411.741028 
	C740.264526,412.851471 740.918213,409.838348 740.795105,407.975708 
	C739.825500,393.302216 737.436584,378.861023 733.800293,364.630951 
	C723.669800,324.987518 705.165344,289.829712 677.378052,259.666412 
	C675.011841,257.097900 673.056335,254.156158 670.108398,251.582855 
	C669.831238,251.001755 669.785706,250.741669 670.005676,250.187744 
	C681.739502,239.517410 693.217285,229.179993 705.969666,220.323227 
	C728.736511,204.511230 753.375732,192.712982 779.989990,185.033844 
	C802.989990,178.397537 826.539612,174.729263 850.411072,175.212158 
	C907.414917,176.365311 958.980652,193.764282 1003.851379,229.415985 
	C1041.908325,259.653931 1069.426147,297.536163 1085.375122,343.648224 
	C1093.871582,368.213745 1098.621582,393.413635 1099.046021,419.421112 
	C1099.078369,421.393921 1099.550537,423.359528 1099.851562,425.753479 
	C1099.898804,428.525970 1097.837158,429.075409 1096.373291,429.931610 
	C1072.033081,444.168213 1050.711548,462.118439 1031.625732,482.759491 
	C1012.940674,502.967072 998.304626,525.904846 986.695801,550.803040 
	C976.438171,572.803223 969.456421,595.822144 965.464722,619.760498 
	C962.201172,639.332275 960.890564,659.035217 961.404724,679.251709 
	C961.461121,680.435669 961.678589,681.196228 961.958740,682.361938 
	C962.488770,685.280823 962.442322,687.804626 962.040649,690.756287 
	C961.204407,693.274963 961.375183,695.458435 961.380615,697.616150 
	C961.559387,768.926636 961.468018,840.237305 961.332947,911.547485 
	C961.321533,917.586548 963.233032,920.816589 968.800720,923.303040 
	C989.786011,932.674561 1008.674500,945.396118 1025.955811,960.536377 
	C1060.206055,990.543579 1084.661743,1027.085449 1098.759888,1070.385010 
	C1106.488770,1094.122314 1110.604736,1118.494995 1110.505737,1143.578613 
	C1110.323975,1189.729980 1110.468140,1235.882690 1110.426392,1282.034790 
	C1110.423096,1285.693115 1110.857300,1289.350220 1110.208008,1293.367920 
z"/>
<path fill="#D92F2F" opacity="1.000000" stroke="none" 
	d="
M669.840210,250.742401 
	C675.368469,253.640244 678.375488,258.625763 682.042480,262.821655 
	C713.072083,298.326294 731.769836,339.696777 739.658875,386.023346 
	C741.078735,394.361084 741.466431,402.874603 742.570923,411.628052 
	C744.308533,413.308472 744.485535,415.132294 744.574463,416.983307 
	C744.654297,418.647430 744.630493,420.313232 744.630554,421.978424 
	C744.632202,588.343750 744.635132,754.709106 744.607422,921.074463 
	C744.606934,924.197327 745.169556,927.429077 743.256775,930.799316 
	C741.598450,934.439575 738.337402,935.385071 735.708740,936.964539 
	C719.353455,946.791565 704.770020,958.856689 690.868591,971.834351 
	C688.426697,974.114014 689.767334,975.337769 691.385376,977.056152 
	C710.364502,997.212036 726.000610,1019.651367 737.402405,1044.941650 
	C748.640198,1069.868042 755.783447,1095.890381 758.112061,1123.180298 
	C758.451294,1127.155762 758.760864,1131.133911 759.229675,1135.534668 
	C759.325989,1140.289307 759.233765,1144.620361 759.233582,1148.951294 
	C759.225586,1336.411133 759.204712,1523.870850 759.337219,1711.330566 
	C759.340820,1716.378662 758.201050,1717.602295 753.020569,1717.568970 
	C710.364868,1717.293701 667.706726,1717.399048 625.049316,1717.390625 
	C618.002625,1717.389160 618.000732,1717.392456 618.000671,1710.520508 
	C618.000305,1525.393555 618.001526,1340.266479 617.994690,1155.139526 
	C617.994507,1149.641113 617.911316,1144.142700 617.869019,1138.154541 
	C616.187622,1122.063721 619.117188,1106.903198 622.502991,1091.836792 
	C629.591614,1060.293091 642.271118,1031.168945 660.988037,1004.752930 
	C667.337219,995.792053 674.107178,987.146362 681.609070,979.108643 
	C686.237976,974.149353 686.337830,973.307129 681.355530,968.721863 
	C658.868591,948.025940 633.830505,931.293091 605.357544,919.898010 
	C602.346313,918.692932 598.774719,918.064331 597.707581,913.693604 
	C597.348511,911.272949 597.380920,909.271179 597.381042,907.272522 
	C597.387939,746.633484 597.342590,585.994385 597.399475,424.887939 
	C597.428711,422.951904 597.789062,421.474609 597.182861,419.606232 
	C596.799072,417.815979 596.760925,416.430267 596.985291,414.637329 
	C598.280762,406.533325 598.504639,398.721863 599.582336,390.994171 
	C602.841125,367.628662 609.211182,345.172699 618.736816,323.591248 
	C626.899048,305.098724 637.156433,287.868805 649.514404,271.879181 
	C654.703186,265.165649 660.716736,259.167511 666.135986,252.653671 
	C666.986023,251.631973 668.056396,250.802383 669.840210,250.742401 
z"/>
<path fill="#D91901" opacity="1.000000" stroke="none" 
	d="
M960.374023,680.243591 
	C958.015442,611.063416 976.972534,548.918335 1019.909180,494.599152 
	C1041.928101,466.742889 1068.568848,444.139404 1099.728638,426.461609 
	C1140.683105,404.169281 1184.080200,391.826294 1230.601685,391.763580 
	C1328.572144,391.631531 1426.542969,391.722870 1524.513550,391.727997 
	C1531.099365,391.728333 1531.086670,391.749634 1531.085815,398.548950 
	C1531.079956,448.200714 1531.016479,497.852722 1531.185547,547.503906 
	C1531.200562,551.926697 1530.111938,553.030701 1525.686768,553.024597 
	C1428.049438,552.890442 1330.412109,552.881287 1232.774658,552.938293 
	C1175.231812,552.971863 1126.475708,598.172302 1121.825806,656.024780 
	C1121.161743,657.964172 1121.633423,659.511780 1121.491699,661.349854 
	C1121.484863,662.592773 1121.468750,663.506348 1121.427002,664.875916 
	C1123.968140,745.958374 1122.003418,826.607239 1122.600708,907.243408 
	C1122.610596,908.576721 1122.567139,909.910034 1122.306396,911.665100 
	C1121.259888,915.404358 1118.977051,914.256714 1117.009644,913.503052 
	C1109.360352,910.572449 1102.322021,906.389587 1095.304321,902.267212 
	C1076.003052,890.929016 1058.018188,877.729736 1042.096802,861.967957 
	C1017.263733,837.383850 997.304321,809.381958 983.073242,777.291992 
	C972.185547,752.740784 965.026367,727.252563 961.355957,700.705444 
	C960.941528,697.707703 961.209351,694.722839 960.870117,691.369385 
	C960.760010,688.336182 960.705566,685.677917 960.628967,682.579956 
	C960.593201,681.591980 960.517883,681.049500 960.374023,680.243591 
z"/>
<path fill="#022A9E" opacity="1.000000" stroke="none" 
	d="
M242.315674,902.148071 
	C242.072388,741.834778 242.067902,581.825867 242.081192,421.816956 
	C242.081635,416.490326 242.262131,411.163696 242.442566,405.369751 
	C242.471802,404.132233 242.544388,403.360260 242.563904,402.309052 
	C242.580688,401.334290 242.528107,400.640411 242.560760,399.607117 
	C242.994247,389.477753 244.705383,379.884033 246.838364,370.354095 
	C247.377136,367.946930 247.655075,365.428925 249.682068,363.187286 
	C250.283066,362.889557 250.553574,362.839996 251.142242,363.052612 
	C253.597672,367.207397 250.883499,370.639526 250.406982,374.683105 
	C250.224518,378.024445 250.815308,380.518677 253.222061,382.674683 
	C255.771301,384.958405 256.102692,387.882599 253.572189,390.574463 
	C248.708282,395.748505 246.850647,402.022583 246.989471,408.916260 
	C247.046295,411.739136 247.470398,414.549377 246.849792,417.796844 
	C244.469055,431.082642 244.587265,444.063232 244.590332,457.053894 
	C244.624100,600.010437 244.609314,742.966919 244.625076,885.923462 
	C244.625443,889.241943 244.286621,892.596436 245.500412,896.213257 
	C247.113495,897.964600 248.718628,897.094299 250.643082,897.002197 
	C253.337662,897.338928 255.343491,898.895996 258.196655,898.619507 
	C270.991272,897.913696 283.367737,897.599426 296.076019,899.818481 
	C300.365173,900.744446 303.898407,903.075867 308.480347,902.632996 
	C310.966583,902.662231 313.046997,902.745239 315.293579,903.896729 
	C317.023987,905.639343 318.430420,907.207825 320.999817,905.162231 
	C327.334351,903.024353 328.188507,903.398193 330.583740,909.139832 
	C331.097595,910.371704 331.636200,911.557373 333.161224,912.408630 
	C334.970062,912.667786 336.441895,912.716919 338.242310,913.086792 
	C346.288879,917.901489 353.336365,923.460815 360.250824,929.757080 
	C362.734985,931.053284 365.122253,931.765259 366.758026,933.869995 
	C369.018738,936.778870 371.709351,933.197510 374.486694,934.252808 
	C375.236572,934.551636 375.612885,934.812561 376.173950,935.382996 
	C379.559418,939.641235 380.152802,934.573914 382.182007,933.668213 
	C382.725586,930.137573 382.357788,926.975464 382.358185,923.817139 
	C382.383820,720.371521 382.382202,516.925964 382.375061,313.480347 
	C382.374908,309.503235 382.810272,305.440918 380.378998,301.426758 
	C379.920288,298.613495 380.952209,296.276917 380.550079,293.364960 
	C380.065552,295.225006 380.275574,296.845215 378.982483,298.294922 
	C376.275055,299.170410 375.293365,297.829712 374.776245,295.389923 
	C374.369537,290.621643 375.706390,286.636658 377.856873,282.840240 
	C373.932892,286.327454 373.367737,291.025879 372.733459,296.097046 
	C370.470215,298.570099 368.625977,296.878571 368.668976,295.229828 
	C368.812347,289.730621 365.117462,283.907104 369.977173,278.425659 
	C370.630402,277.621155 371.132935,277.192932 371.695831,276.841919 
	C374.287384,275.225800 374.585388,273.795868 371.421326,272.511841 
	C370.472931,272.126953 369.936798,271.231720 369.319702,270.028503 
	C368.502899,266.819336 368.363800,263.839996 368.091370,260.919281 
	C367.784973,257.635040 366.365967,255.807220 363.064148,254.768250 
	C361.468384,253.061188 362.519287,251.193222 362.097809,249.571960 
	C359.643494,250.127899 358.470215,251.738724 357.836060,254.301132 
	C356.625885,256.343689 355.096985,257.545441 353.264923,256.172089 
	C351.199615,254.623825 351.748688,252.274460 352.779724,250.353546 
	C354.678955,246.815186 355.229797,243.835312 350.234436,241.963867 
	C348.590790,240.830276 347.581940,239.673660 347.221741,237.660004 
	C347.254517,237.034149 347.303864,236.790161 347.523987,236.221954 
	C348.986023,234.511642 351.160400,235.224380 352.829773,233.640854 
	C348.578491,232.492889 346.167511,228.806564 342.109589,227.020386 
	C342.458801,223.183228 344.829956,221.826157 348.521301,221.656525 
	C355.099548,226.013962 359.029205,232.264359 363.043091,238.298447 
	C379.628876,263.231934 387.736725,290.703613 387.491211,320.720520 
	C387.268005,348.007233 387.459961,375.297272 387.420563,402.585754 
	C387.417419,404.767365 387.507751,406.903198 388.284668,409.445618 
	C386.661469,582.775513 388.103668,755.646545 387.622070,928.514771 
	C387.616943,930.346558 387.638702,932.179688 387.371155,934.462769 
	C386.482300,938.930054 382.822052,940.053223 380.019440,941.992004 
	C374.651611,945.705322 374.644470,946.279480 378.562378,951.144775 
	C398.616852,976.048218 410.292603,1004.132874 410.397278,1036.471069 
	C410.484619,1063.455688 410.410553,1090.440796 410.421844,1117.425659 
	C410.423096,1120.420288 410.305206,1123.423462 410.771851,1126.825806 
	C409.638550,1135.536377 409.754333,1143.872192 409.754425,1152.203979 
	C409.756073,1338.517944 409.755981,1524.831787 409.755066,1711.145752 
	C409.755035,1717.563354 409.749664,1717.566895 403.307953,1717.567139 
	C360.145782,1717.568970 316.983551,1717.536133 273.821564,1717.630493 
	C270.277924,1717.638184 268.582581,1717.281250 268.586212,1712.915039 
	C268.747406,1519.102295 268.769409,1325.289429 268.814545,1131.476562 
	C268.815063,1129.310791 268.900848,1127.144897 269.006683,1124.517212 
	C269.588806,1109.903076 271.821503,1096.002075 275.591827,1082.374634 
	C282.517334,1057.343384 293.048889,1033.938721 307.031189,1012.005066 
	C322.706024,987.416199 342.619598,966.896301 365.587158,949.158752 
	C369.693329,945.987488 369.785736,944.898438 365.996796,941.415894 
	C343.366882,920.615845 316.895691,907.876526 286.279388,904.528564 
	C274.069122,903.193359 261.727356,902.903381 249.406631,903.272217 
	C247.109756,903.340942 244.726501,903.657837 242.315674,902.148071 
z"/>
<path fill="#FE6B02" opacity="1.000000" stroke="none" 
	d="
M960.551453,691.310791 
	C963.157288,696.720825 962.816711,702.920044 963.812683,708.875305 
	C969.783386,744.576782 982.103394,777.835022 1001.070801,808.659485 
	C1011.659729,825.867920 1024.220581,841.441772 1038.239746,856.013794 
	C1059.693481,878.313416 1084.572266,895.728394 1111.902100,909.882019 
	C1114.554810,911.255737 1117.344360,912.364990 1120.363403,913.759399 
	C1120.879517,914.034363 1121.102661,914.146912 1121.363525,914.632446 
	C1121.339111,942.158264 1121.149780,969.311707 1121.256470,996.463928 
	C1121.337524,1017.115417 1120.484009,1037.782593 1121.784790,1058.417480 
	C1125.074341,1110.600708 1166.797119,1154.760498 1218.636108,1161.174316 
	C1223.946655,1161.831543 1229.241699,1162.115112 1234.576172,1162.114868 
	C1330.372803,1162.109619 1426.169434,1162.114746 1521.966064,1162.121582 
	C1523.631714,1162.121704 1525.297241,1162.170166 1527.419189,1162.261108 
	C1526.911255,1164.989624 1524.168945,1164.940308 1522.186768,1165.672119 
	C1491.261963,1177.088379 1463.685669,1193.982910 1438.781860,1215.522705 
	C1413.833984,1237.100708 1393.851074,1262.608521 1378.002808,1291.375488 
	C1372.885132,1300.664917 1368.931763,1310.595825 1364.446899,1320.233765 
	C1363.971924,1321.254517 1363.925903,1322.573608 1362.218750,1323.132080 
	C1361.444214,1323.293335 1360.991699,1323.278687 1359.857910,1323.225708 
	C1315.058472,1323.200439 1270.934204,1323.680420 1226.824097,1323.090332 
	C1185.933838,1322.543335 1147.181641,1312.390015 1110.273682,1293.899414 
	C1109.306641,1291.313599 1109.049194,1288.880981 1109.051270,1286.361572 
	C1109.091553,1239.037231 1109.021606,1191.712646 1109.089844,1144.388428 
	C1109.136841,1111.848267 1102.468384,1080.714600 1089.902588,1050.781982 
	C1079.238892,1025.380127 1064.331909,1002.724609 1045.917603,982.258362 
	C1023.362488,957.189941 996.899414,937.490540 966.155762,923.673889 
	C961.330627,921.505249 959.860596,918.788086 959.874573,913.552124 
	C960.066406,841.566223 960.003662,769.579651 960.019165,697.593201 
	C960.019592,695.604492 960.194763,693.615784 960.551453,691.310791 
z"/>
<path fill="#DA3CB4" opacity="1.000000" stroke="none" 
	d="
M1121.752441,915.021484 
	C1121.265015,914.833496 1121.129028,914.661560 1120.824707,914.205688 
	C1120.766846,912.107361 1120.973511,910.292908 1120.974121,908.478394 
	C1121.002808,827.638000 1121.013062,746.797607 1121.213623,665.644592 
	C1122.174805,676.269897 1123.013428,687.161926 1126.384033,697.739441 
	C1141.704468,745.817322 1183.958252,776.933533 1234.659058,776.979797 
	C1331.117310,777.067810 1427.575684,777.003357 1524.033936,777.017029 
	C1532.047729,777.018188 1531.093628,776.338562 1531.097168,783.854553 
	C1531.121216,833.499756 1531.043945,883.145203 1531.213867,932.789795 
	C1531.229370,937.335266 1529.829834,938.284729 1525.559448,938.278198 
	C1425.436646,938.124878 1325.313354,938.263550 1225.191162,937.982361 
	C1190.970093,937.886230 1158.284424,929.748962 1126.761353,916.692383 
	C1125.241089,916.062805 1123.657837,915.585754 1121.752441,915.021484 
z"/>
<path fill="#DA3CB4" opacity="1.000000" stroke="none" 
	d="
M387.372742,408.981079 
	C385.565979,406.796326 386.034698,404.393097 386.030945,402.110657 
	C385.985962,374.669403 385.964966,347.228058 385.995667,319.786774 
	C386.036438,283.350220 374.032928,251.443542 350.098633,224.003769 
	C349.560364,223.386688 348.878357,222.894943 347.922516,222.281189 
	C347.581604,222.217636 347.410583,221.764679 347.593140,221.605682 
	C360.632812,213.146179 373.637848,205.128540 387.574890,198.690643 
	C416.461853,185.347015 446.771545,177.599854 478.521179,176.058517 
	C544.792358,172.841263 603.372437,192.907669 654.384338,235.188507 
	C659.756042,239.640808 664.657898,244.659943 670.024536,249.654999 
	C670.271240,249.893906 670.196106,250.377930 670.204041,250.622147 
	C663.147522,256.967194 657.208496,264.178864 651.523804,271.451141 
	C632.743225,295.476440 618.583862,322.029663 609.785400,351.325012 
	C604.910156,367.557465 600.912537,383.962067 599.900085,400.970673 
	C599.654297,405.098724 599.118896,409.209534 598.512146,413.675903 
	C596.196594,412.657318 596.253784,410.324371 595.892029,408.267609 
	C587.832947,362.440002 551.669312,327.109283 505.244202,321.747223 
	C472.897156,318.011169 444.070770,327.157593 420.088440,350.142395 
	C404.176300,365.392700 394.008881,383.597778 389.571350,405.107697 
	C389.275208,406.543152 389.176086,408.124207 387.372742,408.981079 
z"/>
<path fill="#D93CB4" opacity="1.000000" stroke="none" 
	d="
M411.063721,1126.984009 
	C408.451080,1125.738403 409.288513,1123.363892 409.278748,1121.323486 
	C409.132355,1090.717529 409.915253,1060.076538 408.698212,1029.514771 
	C407.531586,1000.219910 395.960754,974.389954 377.238647,951.863647 
	C372.045258,945.615173 371.900513,945.799561 378.788269,941.152832 
	C381.112671,939.584656 383.842163,938.579041 385.887329,936.032166 
	C392.881714,930.548096 400.615448,927.008850 408.263489,923.377075 
	C435.611115,910.390442 464.352814,902.812744 494.602081,900.437866 
	C530.199524,897.643188 564.624451,902.424316 598.484131,914.768921 
	C602.720642,918.638550 607.975098,919.555786 612.605469,921.605469 
	C635.889221,931.912659 657.070007,945.389465 675.992310,962.421692 
	C679.078247,965.199341 682.164917,967.976440 685.228455,970.778687 
	C687.495239,972.852051 687.578247,974.829895 685.321350,977.152893 
	C669.241394,993.702820 656.036316,1012.403748 645.283447,1032.735107 
	C634.831665,1052.497314 627.600159,1073.542358 622.978210,1095.420898 
	C620.096313,1109.062988 618.063904,1122.842651 617.972595,1137.254883 
	C616.260681,1126.991821 614.260742,1116.435547 610.004822,1106.408569 
	C592.303650,1064.704834 551.541748,1039.316162 507.127808,1042.363281 
	C459.889526,1045.604248 423.542206,1077.189331 412.287201,1123.364502 
	C412.012756,1124.490479 411.671814,1125.600098 411.063721,1126.984009 
z"/>
<path fill="#03B3E2" opacity="1.000000" stroke="none" 
	d="
M347.493469,221.249588 
	C347.775665,221.446686 347.712494,221.840179 347.647034,222.028900 
	C345.410889,223.066330 343.765930,224.625061 341.881622,226.848816 
	C333.938263,234.077744 325.920105,240.264496 318.689423,247.407974 
	C301.309448,264.578308 286.276917,283.503387 274.430115,305.306427 
	C274.228668,305.840973 274.144867,306.053192 273.921387,306.576782 
	C273.583893,307.296631 273.380585,307.702362 273.022583,308.411682 
	C272.765717,308.918701 272.658051,309.119385 272.374084,309.613068 
	C269.036224,315.196411 266.091492,320.590302 264.164246,326.851654 
	C263.983429,327.404602 263.904480,327.624451 263.692322,328.170837 
	C263.464294,328.713959 263.369507,328.930573 263.126404,329.472717 
	C262.875854,330.015991 262.773590,330.233765 262.513550,330.778625 
	C257.936768,340.768921 254.540619,350.783020 251.921158,361.464294 
	C251.633942,362.023773 251.486938,362.230621 250.987793,362.582153 
	C246.797195,373.160217 245.551270,384.126678 243.981155,395.027679 
	C243.796371,396.310638 243.502304,397.577881 242.952438,399.059998 
	C241.689789,397.377533 242.074280,395.337402 242.069534,393.367096 
	C242.015427,370.869904 241.899658,348.371643 242.087585,325.876099 
	C242.121643,321.800964 240.821152,320.863556 237.000305,320.894775 
	C217.337250,321.055695 197.671661,320.896271 178.008179,321.029327 
	C174.380356,321.053833 172.781448,320.476410 172.797424,316.199707 
	C172.964935,271.372223 172.916458,226.543808 172.850433,181.715775 
	C172.845886,178.633057 173.133270,176.895966 177.041367,176.929764 
	C201.869644,177.144455 226.732773,176.310135 251.522324,177.330276 
	C289.126678,178.877747 321.098175,193.819717 347.493469,221.249588 
z"/>
<path fill="#02B2E2" opacity="1.000000" stroke="none" 
	d="
M241.619873,901.999146 
	C250.560318,901.952515 259.046326,902.125549 267.532867,902.158142 
	C292.946808,902.255798 317.032776,907.600403 339.296539,920.193909 
	C350.073273,926.289795 359.732056,933.867188 368.751373,942.323120 
	C371.547028,944.944031 371.410889,946.627258 368.262787,948.920776 
	C347.245758,964.232910 328.964935,982.401001 314.098114,1003.697083 
	C290.881592,1036.953735 275.763947,1073.547852 270.815247,1114.050659 
	C270.433075,1117.178467 269.980164,1120.297485 269.313324,1123.738037 
	C267.926422,1104.934448 268.584534,1085.792969 268.419128,1066.661011 
	C268.367310,1060.667847 268.180054,1054.659180 268.523926,1048.684570 
	C268.774475,1044.331055 266.850555,1043.286865 262.989685,1043.321411 
	C244.012909,1043.491455 225.031830,1043.359375 206.059464,1043.715820 
	C201.446609,1043.802368 200.572220,1042.250000 200.585358,1038.044312 
	C200.721619,994.423279 200.731201,950.801514 200.581177,907.180542 
	C200.567032,903.068665 201.928635,902.196289 205.710190,902.247009 
	C217.526138,902.405518 229.346832,902.211792 241.619873,901.999146 
z"/>
<path fill="#DA3CB4" opacity="1.000000" stroke="none" 
	d="
M1121.679688,661.345703 
	C1120.613037,660.098450 1121.128906,658.457703 1121.529785,656.657837 
	C1121.796509,657.993164 1121.827515,659.502686 1121.679688,661.345703 
z"/>
<path fill="#03B3E2" opacity="1.000000" stroke="none" 
	d="
M242.438965,402.358978 
	C242.704803,402.854675 242.776337,403.681183 242.687164,404.705078 
	C242.432510,404.164886 242.338593,403.427368 242.438965,402.358978 
z"/>
<path fill="#FEC844" opacity="1.000000" stroke="none" 
	d="
M1359.195557,1323.344116 
	C1359.176636,1323.187256 1359.526855,1323.022095 1359.695801,1323.110107 
	C1359.864868,1323.198120 1359.663086,1323.557861 1359.663086,1323.557861 
	C1359.663086,1323.557861 1359.214355,1323.500977 1359.195557,1323.344116 
z"/>
<path fill="#FFFFFE" opacity="1.000000" stroke="none" 
	d="
M1486.879517,1697.942627 
	C1486.872437,1604.631348 1486.725830,1511.811401 1486.942261,1418.992310 
	C1487.019531,1385.843506 1498.657593,1356.902710 1520.999390,1332.339233 
	C1538.608643,1312.979004 1560.019531,1299.399414 1585.455078,1293.611206 
	C1628.478271,1283.820679 1667.705078,1292.424927 1701.834839,1321.119507 
	C1723.573853,1339.396606 1737.354614,1362.675537 1744.211548,1390.146606 
	C1746.931641,1401.043701 1747.670410,1412.201172 1747.687500,1423.332642 
	C1747.826416,1513.985596 1748.098999,1604.640381 1747.677734,1695.291626 
	C1747.418945,1750.969238 1711.464600,1799.774780 1660.736694,1816.814575 
	C1607.999878,1834.529053 1561.438721,1822.823486 1522.502075,1783.505127 
	C1502.406860,1763.213013 1490.984741,1738.020996 1487.812744,1709.354492 
	C1487.410156,1705.714844 1486.833252,1702.106445 1486.879517,1697.942627 
z"/>
<path fill="#FFFFFE" opacity="1.000000" stroke="none" 
	d="
M743.364319,931.223999 
	C742.938904,924.220154 742.863586,917.223633 742.863403,910.227112 
	C742.859680,744.450806 742.864136,578.674438 742.839111,412.423645 
	C745.120605,407.464264 745.108765,402.387665 746.410461,397.630646 
	C758.122314,354.831268 795.803894,323.638336 839.652283,319.852112 
	C889.953308,315.508667 934.061096,346.751678 949.331604,390.873566 
	C952.828796,400.978241 954.990112,411.370422 954.990234,422.148773 
	C954.991455,585.604126 955.012634,749.059509 955.019287,912.514893 
	C955.019470,918.310791 954.936340,918.403442 949.300293,916.271179 
	C921.770691,905.855957 893.153015,900.490845 863.870056,900.470703 
	C830.983521,900.448059 799.041443,906.753418 768.654541,919.781677 
	C760.259644,923.380859 752.046143,927.403137 743.364319,931.223999 
z"/>
<path fill="#FE6B02" opacity="1.000000" stroke="none" 
	d="
M960.194824,680.256104 
	C960.478882,680.515747 960.661072,681.050537 960.725098,681.862793 
	C960.435547,681.603943 960.264221,681.067566 960.194824,680.256104 
z"/>
<path fill="#FFFEFE" opacity="1.000000" stroke="none" 
	d="
M598.831909,914.490967 
	C596.768127,916.252563 595.015381,914.778748 593.222534,914.173523 
	C565.510925,904.818848 537.029785,900.072388 507.801697,900.923950 
	C466.971039,902.113647 428.604889,912.600830 393.009705,932.850464 
	C391.003815,933.991638 388.865662,934.900330 386.439484,935.830017 
	C386.104828,850.411560 386.125275,765.080261 386.133087,679.749023 
	C386.140717,596.750854 386.135986,513.752747 386.134857,430.754608 
	C386.134766,423.755707 386.062469,416.754639 386.950989,409.342773 
	C389.462616,401.368042 390.615082,393.460968 393.869629,386.143463 
	C411.326050,346.894623 441.128784,323.470703 484.042847,320.293518 
	C529.937866,316.895630 564.325989,337.061462 586.779541,377.270233 
	C593.021179,388.447540 596.294678,400.617798 598.159790,413.632568 
	C598.383667,415.522644 598.459717,417.021729 598.625000,418.960144 
	C598.354919,420.251251 598.512451,421.144470 598.616821,422.336975 
	C598.745789,583.108276 598.761536,743.566895 598.778809,904.025574 
	C598.779175,907.357971 598.796753,910.690430 598.831909,914.490967 
z"/>
<path fill="#DA3CB4" opacity="1.000000" stroke="none" 
	d="
M598.841064,422.395020 
	C598.614868,421.724274 598.499878,420.798889 598.549683,419.636505 
	C598.793701,420.313110 598.872986,421.226776 598.841064,422.395020 
z"/>
<path fill="#00299E" opacity="1.000000" stroke="none" 
	d="
M272.817688,306.919312 
	C272.903046,306.652069 272.863922,306.312653 272.935608,306.157532 
	C274.660919,304.375000 276.493774,302.943207 277.993927,301.141357 
	C278.966736,299.972931 280.304077,298.915192 281.892090,299.876312 
	C283.643738,300.936462 284.978058,300.668427 286.310608,299.284882 
	C287.868591,297.667297 287.354218,296.016113 286.617035,294.224457 
	C284.257477,288.489990 284.661774,287.337677 290.380310,283.586945 
	C291.934052,283.498138 293.090881,283.779205 294.571045,284.224945 
	C296.175720,284.730621 297.074005,287.100494 298.601654,285.562531 
	C299.740265,284.416229 298.185730,283.231140 297.420074,281.812317 
	C296.807373,279.916718 297.050964,278.475891 298.283875,276.890900 
	C303.055267,273.315765 307.100830,269.169617 313.176300,268.708893 
	C314.659302,268.596466 315.507141,267.540955 315.787018,266.090576 
	C316.138855,264.267242 317.182770,262.730560 317.833832,261.036499 
	C319.080170,257.793365 318.704773,253.337570 323.722412,252.963669 
	C327.268280,252.699448 330.626099,250.369308 334.771271,252.567734 
	C334.153625,249.949539 332.537872,249.578827 330.998199,249.153320 
	C328.455170,248.450531 326.733154,247.078232 327.432800,244.179153 
	C328.030396,241.702881 329.571198,239.766403 332.332947,240.243301 
	C336.048889,240.884964 337.872986,238.897537 339.645264,235.824158 
	C340.979401,234.778610 342.134979,234.131393 343.221375,233.369965 
	C345.764740,231.587433 347.538025,232.081161 348.131470,235.629913 
	C348.000000,236.000000 347.999725,236.499695 347.999268,236.749542 
	C344.779785,239.603745 347.196655,240.134491 349.689636,240.875702 
	C357.038818,243.008224 357.511841,244.061203 353.962799,250.508804 
	C353.018250,252.224792 352.315186,253.980255 353.745056,255.497589 
	C354.702606,256.513733 355.875763,255.601501 356.833069,254.315643 
	C358.709167,252.546799 360.559265,253.319855 362.690948,253.829651 
	C370.706421,253.682968 368.577820,260.177582 369.892151,264.170349 
	C370.384155,265.665039 369.990082,267.451447 370.000000,269.552429 
	C369.968658,272.602356 372.317322,274.748932 371.219421,277.756744 
	C366.586426,282.915222 370.931122,288.808472 369.292511,294.082458 
	C369.079376,294.768494 369.537689,296.903778 371.794006,296.240173 
	C373.052643,295.075256 373.473969,293.268982 375.700287,293.782288 
	C376.170593,295.648743 375.350739,297.853271 378.616760,297.989990 
	C379.709747,297.542480 380.238190,297.903412 380.869934,298.692688 
	C385.941589,305.670563 383.921814,313.375153 383.925110,320.649780 
	C384.017273,523.538147 384.003998,726.426514 383.941254,929.314880 
	C383.940582,931.468872 385.106049,934.003113 382.397919,935.905579 
	C381.845642,935.847046 381.690063,935.699097 381.382721,935.293762 
	C381.132324,934.729675 381.096344,934.146423 381.026031,934.138367 
	C380.327423,934.058777 380.616028,934.790344 380.110657,935.336426 
	C378.900757,936.320374 377.838196,936.775208 376.287140,936.220337 
	C375.676849,935.899231 375.415497,935.712097 375.107971,935.219299 
	C375.082916,930.317627 371.980591,932.518799 369.539154,932.540833 
	C368.339630,932.006042 367.864868,930.934509 366.441010,930.770203 
	C364.281128,930.564880 362.463531,928.750549 360.294189,930.826050 
	C353.099915,925.537231 346.199829,920.074463 339.149872,914.305847 
	C337.257751,912.545959 335.568970,910.464478 333.220917,913.763184 
	C330.642029,913.625732 329.353455,911.544067 329.265167,909.866089 
	C328.952820,903.930115 325.701294,904.499390 321.389496,905.954041 
	C320.077850,905.714294 319.432587,905.065430 318.680573,904.038574 
	C318.456848,903.408997 318.462921,903.091736 318.460419,902.775085 
	C318.452423,901.759338 319.568848,900.600708 318.122192,899.768799 
	C317.690765,899.520813 317.114990,899.516479 316.776489,899.854858 
	C315.430603,901.200317 317.007080,902.130005 317.386139,903.595825 
	C317.363068,904.440674 317.109894,904.824951 316.355774,905.059082 
	C313.942047,904.624207 311.980499,903.651062 309.402771,904.000000 
	C306.367340,898.862061 305.948883,898.744141 297.335083,900.903503 
	C291.222076,900.309998 285.422180,900.413696 279.606567,899.322144 
	C272.846680,898.053223 265.883118,900.781250 258.465759,900.000000 
	C252.285370,896.838379 251.310135,891.796265 251.315125,885.663757 
	C251.435883,737.450684 251.427307,589.237549 251.340683,441.024445 
	C251.337280,435.198181 253.217606,429.557831 252.484970,424.247437 
	C252.422546,425.526886 252.631058,427.347076 252.338409,429.138123 
	C252.003845,431.185699 251.393936,433.387787 248.892517,433.293762 
	C246.323120,433.197144 245.449173,431.061768 245.107193,428.755676 
	C244.775772,426.520782 245.795425,424.509430 246.130859,422.386047 
	C246.367111,420.890503 246.611923,419.429504 246.076843,417.472778 
	C246.637405,412.103424 244.342941,407.227448 245.973694,402.304291 
	C247.083389,398.954071 249.218658,395.941986 249.048553,392.138580 
	C248.999390,391.039307 250.376450,390.493134 251.520782,390.001404 
	C254.446426,388.744324 255.261429,384.885773 252.642242,383.665222 
	C248.834366,381.890778 248.956848,379.021393 249.000397,375.422668 
	C250.933701,373.592621 251.784317,371.517548 252.659637,369.094727 
	C253.175079,368.406128 253.600433,368.008606 253.321152,367.112488 
	C252.476379,365.813721 251.964996,364.665527 251.221115,363.281525 
	C251.021698,363.028107 250.837173,362.871124 250.736420,362.798950 
	C250.635666,362.726807 250.680450,362.349213 250.752350,362.173218 
	C253.336868,360.671997 254.641785,359.222900 253.820953,355.813385 
	C252.589874,350.699951 256.351257,347.133057 261.361938,348.381256 
	C261.933350,348.844177 262.100983,349.248138 262.494232,349.396881 
	C262.676697,348.755676 262.620575,349.620056 261.941254,348.936859 
	C259.336243,343.518372 262.542694,336.247040 267.854828,335.099976 
	C264.847229,334.759247 261.916962,334.327240 261.774719,330.166870 
	C261.683075,329.837097 261.747253,329.399994 261.857422,329.208496 
	C262.224792,328.804138 262.463684,328.572479 262.796021,328.096985 
	C262.910736,327.874878 262.867584,327.945160 262.839172,327.915222 
	C263.399323,327.522614 263.806396,326.884430 264.873901,326.849243 
	C265.924866,327.555145 266.186371,328.874512 267.406677,328.666840 
	C268.863892,328.418793 268.990082,327.181244 268.972931,325.989319 
	C268.953888,324.669800 268.900421,323.354218 269.500397,321.763367 
	C271.309509,317.636749 270.636230,313.414398 271.706207,309.158325 
	C271.647003,308.803070 271.737366,308.375488 271.858398,308.193542 
	C272.267670,307.770599 272.518707,307.495667 272.817688,306.919312 
z"/>
<path fill="#01299E" opacity="1.000000" stroke="none" 
	d="
M245.710846,417.275360 
	C248.599869,418.349091 247.830002,420.326935 247.383591,422.576050 
	C246.888077,425.072510 245.083023,427.540985 246.658829,430.266052 
	C247.311356,431.394531 247.715424,432.976349 249.445404,432.516937 
	C250.734375,432.174622 250.978516,430.894562 250.984344,429.670868 
	C251.000168,426.340515 250.990189,423.009979 251.024551,419.679840 
	C251.034714,418.693909 251.004562,417.468903 252.307892,417.348328 
	C254.049301,417.187225 253.867554,418.644623 253.989243,419.769653 
	C254.692871,426.274139 252.992142,432.652832 252.992569,439.124115 
	C253.002197,588.661987 252.997925,738.199890 253.012329,887.737793 
	C253.012680,891.402954 251.878967,895.634094 257.204041,897.011108 
	C257.628296,897.120850 257.734039,898.462219 257.993896,899.615601 
	C255.642853,900.262512 253.490402,899.840271 251.362427,898.062012 
	C249.195328,895.829163 247.990128,898.265808 246.254669,898.792114 
	C243.976776,898.850769 243.040482,897.702820 243.017456,895.733521 
	C243.001877,894.401672 243.002960,893.069580 243.002945,891.737610 
	C243.002396,740.723022 242.998840,589.708496 243.013687,438.693909 
	C243.014389,431.563995 244.589401,424.595490 245.710846,417.275360 
z"/>
<path fill="#01299F" opacity="1.000000" stroke="none" 
	d="
M348.410767,235.999939 
	C346.803284,233.591003 345.681183,231.178452 343.418915,235.337418 
	C343.125336,235.877136 341.684631,235.792908 340.387634,235.998840 
	C336.179077,232.421982 340.491821,230.237717 341.672058,227.167114 
	C341.884247,226.853928 341.868439,226.821136 341.851654,226.807861 
	C344.429993,226.762451 346.817627,227.458633 348.185455,229.755127 
	C349.878021,232.596878 353.838318,231.221878 355.690399,234.025986 
	C353.600311,235.814468 351.261414,236.073074 348.410767,235.999939 
z"/>
<path fill="#0129A0" opacity="1.000000" stroke="none" 
	d="
M368.798401,931.796448 
	C370.233093,931.557312 371.503357,931.195374 372.689362,930.650269 
	C373.999878,930.047791 375.264252,929.730591 376.277771,930.992188 
	C377.485291,932.495483 375.897980,933.336243 375.146362,934.698486 
	C373.869537,935.103088 372.407471,934.790710 371.666656,935.381958 
	C368.635406,937.801392 366.744202,936.887207 365.154419,933.773010 
	C364.202606,931.908630 362.051819,932.240356 360.229889,931.271362 
	C361.017059,924.443542 364.079407,929.714417 366.632629,929.958252 
	C367.791138,930.271484 368.098572,931.027771 368.798401,931.796448 
z"/>
<path fill="#01289F" opacity="1.000000" stroke="none" 
	d="
M376.000000,293.588135 
	C374.432251,293.840607 373.965515,295.610138 372.329224,295.953674 
	C371.322906,290.806061 373.126404,286.329987 375.942261,282.116577 
	C376.705505,280.974487 377.488495,279.578766 378.970154,280.362122 
	C380.716583,281.285461 380.194366,283.014984 379.171143,284.140778 
	C376.803192,286.746094 375.913849,289.763855 376.000000,293.588135 
z"/>
<path fill="#00299F" opacity="1.000000" stroke="none" 
	d="
M297.241211,901.277466 
	C300.018097,897.732849 306.352356,897.313232 309.105927,900.117615 
	C310.253418,901.286255 309.130310,902.246521 309.033386,903.650879 
	C304.819336,904.793396 301.244507,902.733032 297.241211,901.277466 
z"/>
<path fill="#0129A0" opacity="1.000000" stroke="none" 
	d="
M363.000427,253.612946 
	C361.239075,255.469360 359.474182,253.999527 357.355652,254.003601 
	C356.249756,249.427307 360.578796,249.276779 362.851105,247.354279 
	C363.105865,247.138718 363.832489,247.232529 364.191895,247.439957 
	C364.974274,247.891525 364.654297,248.646194 364.249207,249.115433 
	C363.206451,250.323288 362.898224,251.698715 363.000427,253.612946 
z"/>
<path fill="#0129A0" opacity="1.000000" stroke="none" 
	d="
M251.014023,363.456116 
	C252.428925,363.751099 253.563400,364.714355 253.971191,366.671631 
	C254.380264,367.385406 254.526810,367.845276 254.219849,368.689819 
	C251.986130,370.568787 254.245834,375.156189 249.385925,374.993408 
	C248.723602,371.124084 252.061523,367.900482 251.014023,363.456116 
z"/>
<path fill="#0129A0" opacity="1.000000" stroke="none" 
	d="
M371.364166,277.962006 
	C370.921387,275.270264 368.456940,273.031555 369.686768,270.048523 
	C370.598419,270.556854 371.157654,271.164948 371.803741,271.659546 
	C373.003876,272.578247 375.655609,271.081024 375.746979,273.578552 
	C375.836395,276.022614 374.014221,277.340851 371.364166,277.962006 
z"/>
<path fill="#0128A0" opacity="1.000000" stroke="none" 
	d="
M381.290833,298.718689 
	C380.506042,298.737915 380.012085,298.475800 379.259094,298.106842 
	C379.807373,295.486023 377.206604,290.897461 380.759827,290.783478 
	C382.984863,290.712097 381.832764,295.671814 381.290833,298.718689 
z"/>
<path fill="#01289F" opacity="1.000000" stroke="none" 
	d="
M333.428467,914.000000 
	C333.233673,912.556213 332.305847,910.465088 334.698914,910.143066 
	C336.947784,909.840454 338.213013,911.280334 338.959473,913.636963 
	C337.285645,914.000000 335.571289,914.000000 333.428467,914.000000 
z"/>
<path fill="#01299F" opacity="1.000000" stroke="none" 
	d="
M349.858887,240.705154 
	C347.400085,242.443039 345.196411,241.494278 344.331879,239.081207 
	C343.529144,236.840652 345.807617,237.122070 347.613281,237.000610 
	C347.911072,238.469315 348.954315,239.369308 349.858887,240.705154 
z"/>
<path fill="#01299F" opacity="1.000000" stroke="none" 
	d="
M318.688721,903.778931 
	C319.907562,904.073914 320.701172,904.308655 320.958557,905.679260 
	C319.225372,908.110107 317.463867,909.966492 316.008545,905.371033 
	C316.323151,904.899231 316.584503,904.712097 316.892029,904.219299 
	C317.380157,903.606567 317.839325,903.459229 318.688721,903.778931 
z"/>
<path fill="#0129A0" opacity="1.000000" stroke="none" 
	d="
M381.689819,934.780151 
	C382.000000,935.000000 382.000275,935.497559 382.000732,935.746338 
	C381.019684,936.807861 380.002930,937.582031 379.063263,938.440674 
	C376.276031,940.987793 376.014954,939.096863 376.000702,936.364075 
	C377.103088,935.687988 378.206177,935.375916 379.654633,935.031921 
	C380.385437,934.619812 380.845276,934.473145 381.689819,934.780151 
z"/>
<path fill="#00299E" opacity="1.000000" stroke="none" 
	d="
M246.369263,898.995728 
	C247.656845,898.417969 247.645157,892.896484 250.995453,897.657104 
	C249.579514,898.330505 248.159012,898.660950 246.369263,898.995728 
z"/>
<path fill="#022A9E" opacity="1.000000" stroke="none" 
	d="
M341.542114,226.901794 
	C343.242584,230.134674 337.990967,231.890320 339.967072,235.653000 
	C339.467926,240.364716 337.518280,242.830826 332.711060,241.379974 
	C329.615662,240.445801 328.809784,242.806885 328.298157,244.811584 
	C327.674133,247.256729 329.516296,248.132050 331.572571,247.941742 
	C334.034973,247.713882 335.167725,249.202652 336.298157,250.894104 
	C337.021027,251.975830 337.170013,253.054428 336.217834,254.070740 
	C335.086426,255.278320 334.249817,254.372543 333.216125,253.747543 
	C328.873016,251.121490 320.876373,254.559128 319.943207,259.399750 
	C319.321014,262.627167 316.192657,264.977753 316.737091,268.649719 
	C316.786865,268.985382 315.847076,269.849762 315.415497,269.817474 
	C308.847137,269.326233 304.660919,273.961060 299.365723,276.993286 
	C295.375854,277.922974 293.592377,280.904266 291.291504,283.816467 
	C286.701294,286.722717 284.254059,289.752472 288.242920,294.784485 
	C289.559326,296.445160 289.965454,299.255707 287.227051,300.190613 
	C285.603882,300.744751 284.299713,305.643127 281.615753,300.956482 
	C280.638062,299.249237 279.184814,301.147705 278.639374,302.092896 
	C277.479462,304.102875 275.923187,305.370911 273.363647,305.965637 
	C279.898865,291.746216 289.024414,278.953125 299.157593,266.893158 
	C311.658203,252.015564 325.167358,238.138657 341.542114,226.901794 
z"/>
<path fill="#022A9E" opacity="1.000000" stroke="none" 
	d="
M261.995361,348.629669 
	C259.690521,348.178223 257.693268,348.113434 256.007874,350.446991 
	C254.530228,352.492828 253.986557,354.247711 255.239487,356.703583 
	C257.025116,360.203613 256.163452,362.434875 251.259552,361.998138 
	C252.772980,350.948517 256.835480,340.593964 261.450623,330.090820 
	C263.363861,331.385681 263.658966,334.868225 267.487000,333.525909 
	C268.229462,333.265594 271.177460,334.836060 270.679932,336.541718 
	C269.885406,339.265503 268.514069,336.480621 267.392517,336.272491 
	C266.314331,336.072418 264.854156,336.164642 264.825317,337.009521 
	C264.689087,340.996674 260.064331,343.819489 261.995361,348.629669 
z"/>
<path fill="#022A9E" opacity="1.000000" stroke="none" 
	d="
M271.394226,309.021942 
	C273.592194,313.294220 272.203705,317.562622 270.388428,321.914246 
	C267.540436,322.706665 267.926758,325.962982 265.330444,326.921570 
	C264.466858,327.258850 263.933746,327.517670 263.105713,327.830933 
	C264.182556,321.042664 267.886871,315.242218 271.394226,309.021942 
z"/>
<path fill="#022A9E" opacity="1.000000" stroke="none" 
	d="
M262.649323,327.955048 
	C262.748535,328.172638 262.586304,328.470398 262.195862,328.892578 
	C262.107697,328.689758 262.247803,328.362488 262.649323,327.955048 
z"/>
<path fill="#022A9E" opacity="1.000000" stroke="none" 
	d="
M272.676422,306.824738 
	C272.758728,307.002960 272.614410,307.353851 272.224762,307.858185 
	C272.136230,307.673553 272.293030,307.335480 272.676422,306.824738 
z"/>
<path fill="#00299F" opacity="1.000000" stroke="none" 
	d="
M291.231384,284.272522 
	C292.056580,280.001129 293.912750,276.813721 298.802917,276.752655 
	C298.259460,278.322327 297.851898,279.722900 298.000183,281.627075 
	C298.004852,283.597382 297.151001,284.522461 295.339722,284.981934 
	C293.820923,284.848358 292.641815,284.696716 291.231384,284.272522 
z"/>
<path fill="#01299F" opacity="1.000000" stroke="none" 
	d="
M265.001007,327.385132 
	C265.696716,325.554688 267.025726,324.480896 267.105133,322.648102 
	C267.170044,321.149628 268.230652,320.795197 269.783325,321.739746 
	C268.970978,324.507507 272.435516,327.598907 268.748169,329.873535 
	C265.819061,331.680359 264.961060,330.769836 265.001007,327.385132 
z"/>
<path fill="#022A9E" opacity="1.000000" stroke="none" 
	d="
M319.056091,903.649048 
	C318.555542,904.000000 318.111115,904.000000 317.333313,904.000000 
	C315.608948,902.269287 311.594055,900.903015 315.916016,898.293579 
	C317.220551,897.505920 319.158997,897.624390 320.372101,899.132690 
	C321.934570,901.075562 319.508179,901.897949 319.056091,903.649048 
z"/>
<path fill="#022A9E" opacity="1.000000" stroke="none" 
	d="
M295.143982,285.322266 
	C295.829193,284.113190 296.658386,283.226410 297.743774,282.169800 
	C300.045715,282.236603 300.761017,283.684052 300.613495,285.413940 
	C300.524384,286.459076 299.905426,287.583527 298.572144,287.870056 
	C296.690857,288.274353 295.998901,286.951935 295.143982,285.322266 
z"/>
<path fill="#022A9E" opacity="1.000000" stroke="none" 
	d="
M262.009460,349.374146 
	C263.440643,349.025543 265.017334,348.903442 265.552734,350.668213 
	C265.744476,351.300262 265.171967,351.797821 264.427185,351.887604 
	C262.808563,352.082764 262.039551,351.341797 262.009460,349.374146 
z"/>
<path fill="#022A9E" opacity="1.000000" stroke="none" 
	d="
M350.945190,918.604858 
	C349.445374,918.077026 348.840546,917.194946 349.329620,915.917725 
	C349.432831,915.648315 350.247559,915.352234 350.506073,915.491699 
	C351.818878,916.200073 352.452789,917.191956 350.945190,918.604858 
z"/>
<path fill="#022A9E" opacity="1.000000" stroke="none" 
	d="
M381.999084,934.618896 
	C381.555542,935.000000 381.111115,935.000000 380.333313,935.000000 
	C380.398010,933.749817 378.113983,931.946289 380.152740,931.347229 
	C382.311371,930.712952 381.827057,932.945923 381.999084,934.618896 
z"/>
<path fill="#022A9E" opacity="1.000000" stroke="none" 
	d="
M368.997009,931.671509 
	C368.092377,931.926147 367.298889,931.691284 367.041443,930.320740 
	C369.027863,928.423584 368.796204,930.202148 368.997009,931.671509 
z"/>
<path fill="#022A9E" opacity="1.000000" stroke="none" 
	d="
M254.298981,368.961609 
	C254.000000,368.555542 254.000000,368.111115 254.000000,367.333313 
	C254.518814,367.233429 255.293823,367.335114 255.497330,367.730743 
	C255.814240,368.346863 255.221497,368.753876 254.298981,368.961609 
z"/>
</svg>